<?xml version="1.0" standalone="no"?>
<!DOCTYPE svg PUBLIC "-//W3C//DTD SVG 20010904//EN"
 "http://www.w3.org/TR/2001/REC-SVG-20010904/DTD/svg10.dtd">
<svg version="1.0" xmlns="http://www.w3.org/2000/svg"
 width="128.000000pt" height="128.000000pt" viewBox="0 0 128.000000 128.000000"
 preserveAspectRatio="xMidYMid meet">
<metadata>
Created by potrace 1.11, written by Peter Selinger 2001-2013
</metadata>
<g transform="translate(0.000000,128.000000) scale(0.100000,-0.100000)"
fill="#000000" stroke="none">
<path d="M1063 1174 l-89 -96 -37 22 c-116 69 -263 12 -322 -126 -11 -25 -17
-65 -17 -111 0 -40 -1 -73 -3 -73 -1 0 -89 97 -195 215 -105 118 -205 222
-221 230 -34 18 -138 10 -146 -11 -8 -20 22 -62 118 -166 47 -51 123 -135 168
-185 l83 -93 -54 -23 c-71 -32 -118 -74 -148 -134 -21 -41 -25 -62 -25 -143 0
-85 3 -100 28 -144 31 -56 40 -38 -71 -159 -61 -67 -80 -103 -68 -132 13 -34
48 -13 142 84 l96 99 31 -16 c18 -9 60 -18 95 -20 52 -4 71 0 115 21 69 34
113 81 141 151 13 31 26 57 30 57 4 0 68 -69 143 -153 75 -84 153 -172 174
-195 43 -48 56 -51 91 -23 l25 19 31 -34 c17 -19 35 -35 40 -35 17 0 34 28 28
47 -3 10 -118 144 -255 298 -136 154 -248 281 -247 282 1 1 19 -2 41 -7 178
-42 326 156 261 348 l-18 52 82 88 c94 100 109 124 90 147 -24 29 -49 14 -137
-81z m-738 -197 c97 -109 175 -201 172 -204 -15 -14 -52 17 -139 116 -186 209
-238 273 -232 282 3 6 10 9 14 7 5 -2 88 -92 185 -201z m578 71 c9 -5 17 -12
17 -16 0 -13 -219 -247 -234 -250 -19 -4 -29 30 -28 95 0 60 31 124 73 156 46
34 122 41 172 15z m91 -104 c14 -37 6 -137 -15 -174 -30 -52 -92 -90 -149 -90
-48 0 -86 18 -79 38 6 16 219 242 229 242 4 0 11 -7 14 -16z m-478 -253 c23
-10 45 -24 48 -30 4 -6 -28 -49 -76 -99 -46 -48 -112 -118 -147 -157 l-63 -70
-18 23 c-10 12 -24 46 -31 76 -38 173 133 327 287 257z m125 -142 c11 -38 10
-100 -2 -142 -21 -77 -120 -156 -195 -157 -34 0 -94 18 -94 28 0 18 262 303
275 299 5 -2 12 -14 16 -28z m270 -231 c82 -91 149 -171 149 -177 0 -6 -6 -11
-14 -11 -20 0 -336 361 -336 384 0 18 2 18 26 -5 15 -13 93 -99 175 -191z"/>
</g>
</svg>
