<?xml version="1.0" standalone="no"?>
<!DOCTYPE svg PUBLIC "-//W3C//DTD SVG 20010904//EN"
 "http://www.w3.org/TR/2001/REC-SVG-20010904/DTD/svg10.dtd">
<svg version="1.0" xmlns="http://www.w3.org/2000/svg"
 width="260.000000pt" height="260.000000pt" viewBox="0 0 260.000000 260.000000"
 preserveAspectRatio="xMidYMid meet">
<metadata>
Created by potrace 1.11, written by Peter Selinger 2001-2013
</metadata>
<g transform="translate(0.000000,260.000000) scale(0.100000,-0.100000)"
fill="#000000" stroke="none">
<path d="M477 2333 c-4 -3 -7 -17 -7 -29 0 -24 5 -29 504 -554 237 -249 255
-270 208 -246 -82 41 -191 67 -289 68 -206 1 -382 -82 -519 -244 -170 -202
-206 -506 -88 -742 120 -238 339 -375 604 -376 230 -1 456 132 577 338 97 165
117 404 48 587 -14 36 -23 65 -21 65 4 0 454 -473 571 -600 153 -166 173 -179
223 -144 12 8 30 14 40 13 39 -3 53 2 64 26 9 19 7 29 -6 50 -17 26 -427 455
-682 715 -68 68 -122 125 -121 126 1 1 27 -4 57 -12 141 -36 273 5 378 121 72
79 96 145 96 265 0 77 -4 104 -22 144 l-22 49 75 77 c66 68 75 82 75 114 0 48
-36 86 -81 86 -26 0 -46 -14 -109 -76 l-78 -76 -47 26 c-60 34 -174 51 -239
36 -120 -27 -233 -117 -283 -227 -31 -67 -42 -178 -24 -249 7 -25 11 -48 9
-49 -2 -2 -77 74 -168 169 -530 552 -499 523 -560 534 -85 16 -156 23 -163 15z
m1355 -337 c27 -11 27 -11 -148 -188 -96 -98 -176 -178 -178 -178 -2 0 -9 13
-16 30 -17 40 -15 149 3 192 19 44 81 114 120 134 62 32 155 37 219 10z m-932
-51 c13 -14 21 -25 18 -25 -2 0 -15 11 -28 25 -13 14 -21 25 -18 25 2 0 15
-11 28 -25z m1095 -195 c0 -58 -6 -85 -22 -116 -29 -54 -101 -117 -151 -132
-49 -15 -132 -15 -168 -2 l-28 11 174 174 c197 197 195 197 195 65z m-763
-152 c66 -71 118 -128 116 -128 -2 0 -76 75 -163 168 -87 92 -140 149 -116
127 23 -22 97 -97 163 -167z m-252 -172 c80 -15 154 -43 202 -78 l30 -21 -378
-378 c-274 -274 -381 -375 -390 -368 -20 17 -64 117 -79 183 -20 85 -19 179 5
265 29 104 61 162 135 239 87 93 185 144 309 162 74 11 84 11 166 -4z m502
-86 c2 -5 73 -80 158 -167 153 -157 344 -355 430 -446 24 -26 40 -47 34 -47
-5 0 -109 105 -230 233 -122 127 -265 278 -318 335 -54 56 -93 102 -88 102 6
0 12 -4 14 -10z m-106 -217 c29 -60 54 -169 54 -233 0 -70 -26 -173 -61 -247
-39 -82 -139 -185 -225 -230 -162 -86 -357 -86 -516 -1 l-59 31 188 191 c600
609 567 577 582 558 7 -9 24 -40 37 -69z"/>
</g>
</svg>
